<?xml version="1.0" encoding="UTF-8"?>
<svg xmlns="http://www.w3.org/2000/svg" height="16px" viewBox="0 0 16 16" width="16px"><g fill="#222222"><path d="m 8.175781 1.003906 c -2.15625 -0.070312 -4.277343 0.859375 -5.683593 2.601563 c -1.871094 2.316406 -2.066407 5.582031 -0.484376 8.105469 c 1.582032 2.527343 4.601563 3.777343 7.503907 3.109374 c 2.90625 -0.667968 5.074219 -3.117187 5.390625 -6.082031 c 0.046875 -0.359375 -0.105469 -0.71875 -0.394532 -0.933593 c -0.292968 -0.21875 -0.679687 -0.257813 -1.011718 -0.109376 c -0.332032 0.152344 -0.554688 0.472657 -0.582032 0.835938 c -0.226562 2.121094 -1.769531 3.863281 -3.851562 4.34375 c -2.078125 0.476562 -4.226562 -0.414062 -5.359375 -2.222656 s -0.996094 -4.128906 0.347656 -5.792969 c 1.339844 -1.664063 3.578125 -2.289063 5.585938 -1.5625 c 0.339843 0.128906 0.71875 0.066406 0.996093 -0.167969 c 0.277344 -0.230468 0.410157 -0.59375 0.34375 -0.949218 c -0.066406 -0.355469 -0.316406 -0.648438 -0.660156 -0.761719 c -0.699218 -0.253907 -1.421875 -0.390625 -2.140625 -0.414063 z m 0 0"/><path d="m 13.109375 2.542969 l -5.292969 5.292969 l -2.417968 -2.417969 l -1.414063 1.414062 l 3.832031 3.832031 l 6.707032 -6.707031 z m 0 0"/></g></svg>
