<?xml version="1.0" encoding="UTF-8" standalone="no"?>
<svg
   xmlns:dc="http://purl.org/dc/elements/1.1/"
   xmlns:cc="http://creativecommons.org/ns#"
   xmlns:rdf="http://www.w3.org/1999/02/22-rdf-syntax-ns#"
   xmlns:svg="http://www.w3.org/2000/svg"
   xmlns="http://www.w3.org/2000/svg"
   xmlns:sodipodi="http://sodipodi.sourceforge.net/DTD/sodipodi-0.dtd"
   xmlns:inkscape="http://www.inkscape.org/namespaces/inkscape"
   sodipodi:docname="splash-b-symbolic.svg"
   inkscape:version="1.0 (4035a4fb49, 2020-05-01)"
   id="svg955"
   version="1.1"
   viewBox="0 0 55.562499 55.562502"
   height="210"
   width="210">
  <defs
     id="defs949" />
  <sodipodi:namedview
     inkscape:window-maximized="1"
     inkscape:window-y="0"
     inkscape:window-x="1920"
     inkscape:window-height="1043"
     inkscape:window-width="1920"
     units="px"
     showgrid="false"
     inkscape:document-rotation="0"
     inkscape:current-layer="layer1"
     inkscape:document-units="mm"
     inkscape:cy="262.58364"
     inkscape:cx="2.3166665"
     inkscape:zoom="0.98994949"
     inkscape:pageshadow="2"
     inkscape:pageopacity="0.0"
     borderopacity="1.0"
     bordercolor="#666666"
     pagecolor="#ffffff"
     id="base" />
  <metadata
     id="metadata952">
    <rdf:RDF>
      <cc:Work
         rdf:about="">
        <dc:format>image/svg+xml</dc:format>
        <dc:type
           rdf:resource="http://purl.org/dc/dcmitype/StillImage" />
        <dc:title />
      </cc:Work>
    </rdf:RDF>
  </metadata>
  <g
     id="layer1"
     inkscape:groupmode="layer"
     inkscape:label="Capa 1">
    <g
       id="g899"
       transform="translate(40.654827,-50.081844)">
      <g
         style="font-style:normal;font-variant:normal;font-weight:bold;font-stretch:condensed;font-size:28.2223px;line-height:1.25;font-family:'IBM Plex Sans Condensed';-inkscape-font-specification:'IBM Plex Sans Condensed, Bold Condensed';letter-spacing:0px;word-spacing:0px;fill:#241f31;stroke-width:0.264583"
         id="text1638-8"
         aria-label="A"
         transform="matrix(1.1767864,0,0,1.1767864,-15.288499,-168.43268)">
        <g
           style="opacity:1"
           id="g1012">
          <path
             id="path1014"
             d="m -20.101079,232.68214 h 5.221126 l 1.185336,-4.03578 h 6.8297969 l 1.2700035,4.03578 h 5.39045921 L -6.8930424,213.09587 h -6.2371286 z m 7.73291,-8.43846 2.032006,-6.8298 2.1166725,6.8298 z"
             style="color:#000000;font-style:normal;font-variant:normal;font-weight:800;font-stretch:normal;font-size:medium;line-height:1.25;font-family:Cantarell;-inkscape-font-specification:'Cantarell Ultra-Bold';font-variant-ligatures:normal;font-variant-position:normal;font-variant-caps:normal;font-variant-numeric:normal;font-variant-alternates:normal;font-variant-east-asian:normal;font-feature-settings:normal;font-variation-settings:normal;text-indent:0;text-align:start;text-decoration:none;text-decoration-line:none;text-decoration-style:solid;text-decoration-color:#000000;letter-spacing:0px;word-spacing:0px;text-transform:none;writing-mode:lr-tb;direction:ltr;text-orientation:mixed;dominant-baseline:auto;baseline-shift:baseline;text-anchor:start;white-space:normal;shape-padding:0;shape-margin:0;inline-size:0;clip-rule:nonzero;display:inline;overflow:visible;visibility:visible;isolation:auto;mix-blend-mode:normal;color-interpolation:sRGB;color-interpolation-filters:linearRGB;solid-color:#000000;solid-opacity:1;vector-effect:none;fill:#241f31;fill-opacity:1;fill-rule:nonzero;stroke:none;stroke-width:0.264583;stroke-linecap:butt;stroke-linejoin:miter;stroke-miterlimit:4;stroke-dasharray:none;stroke-dashoffset:0;stroke-opacity:1;color-rendering:auto;image-rendering:auto;shape-rendering:auto;text-rendering:auto;enable-background:accumulate;stop-color:#000000;stop-opacity:1" />
          <path
             id="path1016"
             d="m -13.222656,212.96289 -7.066406,19.85156 h 0.1875 5.320312 l 1.185547,-4.03515 h 6.6347655 l 1.2695313,4.03515 h 5.67187495 L -6.7988281,212.96289 Z m 0.185547,0.26563 h 6.0488278 l 6.59960932,19.32226 H -5.4980469 l -1.2695312,-4.03711 h -7.0253909 l -1.185547,4.03711 h -4.935546 z m 2.699218,3.73046 -2.207031,7.41602 h 0.175781 4.3300785 z m 0.0039,0.91016 1.9355465,6.24219 h -3.7929685 z"
             style="color:#000000;font-style:normal;font-variant:normal;font-weight:800;font-stretch:normal;font-size:medium;line-height:1.25;font-family:Cantarell;-inkscape-font-specification:'Cantarell Ultra-Bold';font-variant-ligatures:normal;font-variant-position:normal;font-variant-caps:normal;font-variant-numeric:normal;font-variant-alternates:normal;font-variant-east-asian:normal;font-feature-settings:normal;font-variation-settings:normal;text-indent:0;text-align:start;text-decoration:none;text-decoration-line:none;text-decoration-style:solid;text-decoration-color:#000000;letter-spacing:0px;word-spacing:0px;text-transform:none;writing-mode:lr-tb;direction:ltr;text-orientation:mixed;dominant-baseline:auto;baseline-shift:baseline;text-anchor:start;white-space:normal;shape-padding:0;shape-margin:0;inline-size:0;clip-rule:nonzero;display:inline;overflow:visible;visibility:visible;isolation:auto;mix-blend-mode:normal;color-interpolation:sRGB;color-interpolation-filters:linearRGB;solid-color:#000000;solid-opacity:1;vector-effect:none;fill-opacity:1;fill-rule:nonzero;stroke:none;stroke-width:0.264583;stroke-linecap:butt;stroke-linejoin:miter;stroke-miterlimit:4;stroke-dasharray:none;stroke-dashoffset:0;stroke-opacity:1;color-rendering:auto;image-rendering:auto;shape-rendering:auto;text-rendering:auto;enable-background:accumulate;stop-color:#000000;stop-opacity:1" />
        </g>
      </g>
      <g
         style="font-style:italic;font-variant:normal;font-weight:normal;font-stretch:normal;font-size:28.2223px;line-height:1.25;font-family:'Crimson Text';-inkscape-font-specification:'Crimson Text Italic';letter-spacing:0px;word-spacing:0px;fill:#241f31;stroke-width:0.264583"
         id="text1642-7"
         aria-label="A"
         transform="matrix(1.1767864,0,0,1.1767864,-15.288499,-168.43268)">
        <g
           style="opacity:1"
           id="g1018">
          <path
             id="path1020"
             d="M 14.338019,226.0951 V 226.04 c 0,-0.0184 -0.01837,-0.0368 -0.05512,-0.0551 -0.01837,-0.0367 -0.05512,-0.0551 -0.110243,-0.0551 -0.03675,-0.0184 -0.101055,-0.0276 -0.192926,-0.0276 -0.07349,-0.0184 -0.183739,-0.0276 -0.33073,-0.0276 -0.128617,-0.0184 -0.293982,-0.0276 -0.496095,-0.0276 -0.183739,-0.0184 -0.413413,-0.0276 -0.689021,-0.0276 h -0.909508 c -0.385852,0 -1.240238,0.0459 -2.5631579,0.1378 -0.055122,0 -0.3031696,0.36748 -0.7441427,1.10243 -0.4409735,0.73496 -0.87276,1.53423 -1.2953595,2.3978 -0.4225995,0.86357 -0.6338993,1.43316 -0.6338993,1.70877 0,0.20211 0.1286173,0.37666 0.3858518,0.52365 0.2572345,0.14699 0.4869081,0.23886 0.689021,0.27561 0.2204867,0.0367 0.3674778,0.0551 0.4409734,0.0551 0.036748,0 0.055122,0.0551 0.055122,0.16537 0,0.20211 -0.045935,0.39504 -0.1378042,0.57878 -1.7087721,-0.0919 -2.581532,-0.13781 -2.6182798,-0.13781 -0.3491039,0 -0.6614601,0.009 -0.9370685,0.0276 -0.2572345,0.0184 -0.5420299,0.0368 -0.854386,0.0551 -0.3123562,0.0184 -0.6155254,0.0368 -0.9095077,0.0551 -0.036748,-0.0367 -0.055122,-0.11023 -0.055122,-0.22049 0,-0.34911 0.064309,-0.52366 0.1929259,-0.52366 0.2021128,0 0.4777212,-0.0551 0.8268251,-0.16536 0.3674779,-0.11025 0.6247124,-0.24805 0.7717036,-0.41341 0.4042256,-0.44097 0.9646293,-1.30455 1.6812112,-2.59072 l 7.6067916,-13.67018 c 0.275609,-0.49609 0.6339,-0.74414 1.074873,-0.74414 0.0735,0 0.146991,0.0184 0.220486,0.0551 l 2.28755,14.55212 c 0.183739,1.15756 0.293983,1.81902 0.33073,1.98438 0.05512,0.27561 0.284794,0.51448 0.689021,0.71659 0.4226,0.18373 0.725769,0.2756 0.909508,0.2756 0.03675,0 0.05512,0.0459 0.05512,0.13781 0,0.22049 -0.04594,0.4226 -0.137805,0.60634 -1.708772,-0.0919 -2.664214,-0.13781 -2.866327,-0.13781 -0.349104,0 -0.679834,0.009 -0.99219,0.0276 -0.293983,0.0184 -0.624713,0.0368 -0.99219,0.0551 -0.367478,0.0184 -0.689021,0.0368 -0.96463,0.0551 -0.01837,-0.0184 -0.02756,-0.0735 -0.02756,-0.16537 0,-0.38585 0.06431,-0.57878 0.192926,-0.57878 0.183739,0 0.440974,-0.0551 0.771704,-0.16536 0.33073,-0.11025 0.54203,-0.23886 0.633899,-0.38585 0.128617,-0.27561 0.192926,-0.7074 0.192926,-1.29536 0,-0.31236 -0.165365,-1.67203 -0.496095,-4.07901 z m -2.425354,-1.62609 c 0.845199,0 1.53422,-0.0184 2.067063,-0.0551 0.07349,0 0.110243,-0.0367 0.110243,-0.11024 0,-0.0919 -0.06431,-0.52366 -0.192926,-1.29536 -0.110243,-0.77171 -0.248047,-1.67203 -0.413412,-2.70096 l -0.303169,-2.12219 c -2.259989,4.09738 -3.3899836,6.16444 -3.3899836,6.20119 0,0.0367 0.00919,0.0551 0.027561,0.0551 0.4225996,0.0184 1.1208076,0.0276 2.0946236,0.0276 z"
             style="color:#000000;font-style:italic;font-variant:normal;font-weight:normal;font-stretch:normal;font-size:medium;line-height:1.25;font-family:'Crimson Text';-inkscape-font-specification:'Crimson Text Italic';font-variant-ligatures:normal;font-variant-position:normal;font-variant-caps:normal;font-variant-numeric:normal;font-variant-alternates:normal;font-variant-east-asian:normal;font-feature-settings:normal;font-variation-settings:normal;text-indent:0;text-align:start;text-decoration:none;text-decoration-line:none;text-decoration-style:solid;text-decoration-color:#000000;letter-spacing:0px;word-spacing:0px;text-transform:none;writing-mode:lr-tb;direction:ltr;text-orientation:mixed;dominant-baseline:auto;baseline-shift:baseline;text-anchor:start;white-space:normal;shape-padding:0;shape-margin:0;inline-size:0;clip-rule:nonzero;display:inline;overflow:visible;visibility:visible;isolation:auto;mix-blend-mode:normal;color-interpolation:sRGB;color-interpolation-filters:linearRGB;solid-color:#000000;solid-opacity:1;vector-effect:none;fill:#241f31;fill-opacity:1;fill-rule:nonzero;stroke:none;stroke-width:0.264583;stroke-linecap:butt;stroke-linejoin:miter;stroke-miterlimit:4;stroke-dasharray:none;stroke-dashoffset:0;stroke-opacity:1;color-rendering:auto;image-rendering:auto;shape-rendering:auto;text-rendering:auto;enable-background:accumulate;stop-color:#000000;stop-opacity:1" />
          <path
             id="path1022"
             d="m 14.53125,214.30469 c -0.490582,0 -0.901251,0.29022 -1.191406,0.8125 l -7.605469,13.66992 c -0.714563,1.28255 -1.2768159,2.142 -1.6640625,2.56445 v 0.002 h -0.00195 c -0.1203213,0.13535 -0.3562464,0.26859 -0.7109375,0.375 -0.3421134,0.10803 -0.6090489,0.16015 -0.7871094,0.16015 -0.062078,0 -0.1280214,0.025 -0.1738281,0.0664 -0.045807,0.0414 -0.074681,0.0933 -0.095703,0.15039 -0.042045,0.11412 -0.056641,0.25678 -0.056641,0.43945 0,0.12496 0.010195,0.22898 0.09375,0.3125 l 0.042969,0.043 0.058594,-0.004 c 0.2938214,-0.0183 0.5979427,-0.0363 0.9101563,-0.0547 0.3128199,-0.0184 0.5975521,-0.0362 0.8554687,-0.0547 0.2719042,-0.0182 0.5809547,-0.0273 0.9277344,-0.0273 -0.00919,0 0.016463,5.3e-4 0.046875,0.002 0.030412,0.001 0.074105,0.003 0.1308594,0.006 0.1135092,0.006 0.2799055,0.0139 0.4980469,0.0254 0.4362826,0.023 1.0811862,0.0576 1.9355468,0.10351 l 0.085937,0.006 0.039063,-0.0781 c 0.1005466,-0.2011 0.1523438,-0.41652 0.1523438,-0.63867 0,-0.0625 -0.00393,-0.11336 -0.021484,-0.16602 -0.00878,-0.0263 -0.021151,-0.0543 -0.048828,-0.082 -0.027678,-0.0277 -0.074927,-0.0488 -0.1171875,-0.0488 -0.05122,0 -0.2014563,-0.0167 -0.4179688,-0.0527 h -0.00195 c -0.181003,-0.0332 -0.3967773,-0.12015 -0.6445313,-0.26172 -0.2345562,-0.13403 -0.3203124,-0.26221 -0.3203124,-0.4082 0,-0.104 0.047161,-0.30962 0.1503906,-0.5879 0.1032298,-0.27827 0.2606245,-0.6332 0.4707031,-1.0625 0.4211271,-0.86056 0.8522108,-1.65732 1.2910156,-2.38867 0.219861,-0.36643 0.3902373,-0.64034 0.5117188,-0.82031 0.060741,-0.09 0.1096913,-0.1574 0.1425781,-0.19726 0.00987,-0.012 0.0133,-0.0149 0.019531,-0.0215 1.291202,-0.0893 2.149344,-0.13672 2.519532,-0.13672 h 0.910156 c 0.272664,0 0.498567,0.01 0.675781,0.0274 h 0.0059 0.0059 c 0.198098,0 0.359515,0.0103 0.478515,0.0273 l 0.0078,0.002 h 0.0098 c 0.141471,0 0.245488,0.0101 0.298828,0.0234 l 0.01563,0.004 h 0.01758 c 0.08304,0 0.135532,0.015 0.132812,0.0137 l 0.02734,0.0137 h 0.03125 l 0.01172,0.0215 0.02148,0.01 v 0.002 h 0.0039 l 0.01563,0.008 c 0.01046,0.005 0.01229,0.008 0.0059,0.002 -9.52e-4,-9.5e-4 -0.0025,-0.008 -0.0039,-0.01 h 0.244141 c -2.24e-4,-0.002 2.24e-4,-0.002 0,-0.004 v -0.0527 c 0,-0.0532 -0.02793,-0.0963 -0.05273,-0.12109 -0.02481,-0.0248 -0.04989,-0.0377 -0.07617,-0.0508 l 0.05859,0.0586 c -0.04023,-0.0804 -0.136596,-0.11939 -0.21875,-0.12305 -0.05668,-0.0188 -0.11356,-0.0308 -0.185547,-0.0312 -0.08639,-0.02 -0.193853,-0.0265 -0.328125,-0.0273 l -0.01953,-0.002 c -0.131627,-0.0178 -0.291331,-0.0269 -0.482422,-0.0273 h -0.01367 c -0.188208,-0.0183 -0.414371,-0.0273 -0.6875,-0.0273 h -0.910156 c -0.395451,0 -1.247744,0.0472 -2.566407,0.13867 -0.07354,0.002 -0.094315,0.0302 -0.1152343,0.0488 -0.021648,0.0192 -0.039094,0.0404 -0.060547,0.0664 -0.042906,0.052 -0.09492,0.12304 -0.1582031,0.21679 -0.1265662,0.18751 -0.3003722,0.46547 -0.5214844,0.83399 -0.4431421,0.73857 -0.8767093,1.53967 -1.3007813,2.40625 -0.2125209,0.43428 -0.3723988,0.79657 -0.4804687,1.08789 -0.1080699,0.29132 -0.1660156,0.50807 -0.1660156,0.67969 0,0.25823 0.1732122,0.47872 0.453125,0.63867 0.2660701,0.15204 0.5075298,0.25048 0.7304687,0.29101 h 0.00195 c 0.1833626,0.0306 0.2872525,0.0412 0.3808593,0.0469 0.00173,0.0144 0.00391,0.0179 0.00391,0.043 0,0.15476 -0.045565,0.29864 -0.1054688,0.4414 -0.7850769,-0.0422 -1.4158733,-0.076 -1.828125,-0.0976 -0.2182386,-0.0115 -0.3841791,-0.0196 -0.4980468,-0.0254 -0.056934,-0.003 -0.1017866,-0.006 -0.1328126,-0.008 -0.031026,-0.001 -0.040219,-0.002 -0.058594,-0.002 -0.3514281,0 -0.6659998,0.0107 -0.9453125,0.0293 h -0.00195 c -0.2565525,0.0183 -0.5396701,0.0364 -0.8515625,0.0547 -0.2796373,0.0165 -0.5495142,0.0324 -0.8144532,0.0488 -0.00509,-0.0173 -0.00977,-0.0203 -0.00977,-0.082 0,-0.16643 0.016798,-0.28722 0.039063,-0.34765 0.011132,-0.0302 0.022966,-0.0427 0.025391,-0.0449 0.2256867,-5.1e-4 0.5067802,-0.0599 0.8613281,-0.17187 0.3775782,-0.11361 0.6568036,-0.25524 0.8300781,-0.44922 l 0.00195,-0.002 c 0.4210791,-0.45981 0.9792875,-1.3246 1.6972657,-2.61328 l 7.6074219,-13.66993 c 0.261062,-0.46991 0.56762,-0.67773 0.958984,-0.67773 0.03317,0 0.06846,0.014 0.103516,0.0254 l 2.273437,14.4707 c 0.183801,1.15795 0.291232,1.8086 0.332031,1.99219 0.06653,0.32991 0.336719,0.59512 0.759766,0.80664 l 0.002,0.002 0.0039,0.002 c 0.393383,0.17103 0.6618,0.24656 0.882813,0.26172 0.0014,0.009 0.002,0.009 0.002,0.0293 0,0.17324 -0.04488,0.32359 -0.105469,0.46875 -1.589979,-0.0851 -2.551776,-0.13281 -2.765625,-0.13281 -0.351428,0 -0.684756,0.009 -1,0.0273 -0.293287,0.0184 -0.625156,0.0383 -0.992187,0.0566 -0.323428,0.0162 -0.59683,0.0327 -0.84961,0.0488 -4.07e-4,-0.0108 -0.002,-0.0144 -0.002,-0.0273 0,-0.18558 0.01723,-0.32122 0.04102,-0.39258 0.01189,-0.0357 0.02402,-0.0533 0.02734,-0.0566 0.209225,-0.001 0.470257,-0.0584 0.804687,-0.16992 0.343977,-0.11466 0.583272,-0.24652 0.705078,-0.44141 l 0.0039,-0.006 0.0039,-0.008 c 0.143861,-0.30828 0.205078,-0.75396 0.205078,-1.35156 0,-0.17953 -0.04217,-0.58849 -0.125,-1.26953 -0.08226,-0.67636 -0.207379,-1.61658 -0.371094,-2.8086 l -0.263672,0.0176 c 0.165313,1.20311 0.288558,2.14364 0.371094,2.82227 0.08254,0.67863 0.123047,1.10544 0.123047,1.23828 0,0.57283 -0.06631,0.98458 -0.177734,1.22851 -0.06386,0.0986 -0.24452,0.22343 -0.558594,0.32813 -0.323758,0.10791 -0.571234,0.1582 -0.728516,0.1582 -0.06523,0 -0.132831,0.0293 -0.177734,0.0742 -0.0449,0.0449 -0.07349,0.0994 -0.09375,0.16016 -0.04052,0.12156 -0.05469,0.27628 -0.05469,0.47656 0,0.0503 0.0032,0.0915 0.0098,0.13086 0.0066,0.0393 0.0086,0.0788 0.05664,0.12695 l 0.04297,0.043 0.05859,-0.004 c 0.274648,-0.0183 0.595955,-0.0363 0.962891,-0.0547 0.367923,-0.0184 0.699462,-0.0362 0.99414,-0.0547 0.309468,-0.0182 0.637595,-0.0273 0.984375,-0.0273 0.182068,0 1.150882,0.0449 2.859375,0.13671 l 0.08594,0.006 0.03906,-0.0781 c 0.101336,-0.20267 0.152344,-0.42716 0.152344,-0.66602 0,-0.0547 -0.003,-0.10114 -0.02344,-0.15234 -0.01024,-0.0256 -0.02754,-0.0539 -0.05664,-0.0781 -0.0291,-0.0242 -0.07067,-0.0391 -0.107422,-0.0391 -0.139353,0 -0.440641,-0.0855 -0.855469,-0.26562 -0.380003,-0.19146 -0.569415,-0.40175 -0.613281,-0.6211 l -0.002,-0.002 c -0.0327,-0.14713 -0.144447,-0.81939 -0.328125,-1.97656 l -2.298828,-14.61914 -0.06055,-0.0312 c -0.08927,-0.0446 -0.183762,-0.0684 -0.279297,-0.0684 z m -1.275391,3.4707 -0.191406,0.3457 c -1.130035,2.04877 -1.977813,3.58923 -2.542969,4.62305 -0.282577,0.51691 -0.493212,0.90833 -0.6347652,1.17188 -0.070777,0.13177 -0.1242833,0.23166 -0.1601563,0.30078 -0.017936,0.0346 -0.031229,0.0599 -0.041016,0.0801 -0.00489,0.0101 -0.010037,0.0189 -0.013672,0.0273 -0.00182,0.004 -0.00362,0.009 -0.00586,0.0156 -0.00112,0.003 -0.00234,0.006 -0.00391,0.0117 -7.834e-4,0.003 -0.00192,0.0115 -0.00195,0.0117 -3.44e-5,2.1e-4 -0.00195,0.0233 -0.00195,0.0234 0,0.0294 0.00111,0.0589 0.021484,0.0996 0.020379,0.0407 0.085405,0.0879 0.1386719,0.0879 0.4273326,0.0185 1.1218206,0.0273 2.0937496,0.0273 h 0.132813 v -0.004 c 0.773505,-0.002 1.438405,-0.0181 1.941406,-0.0527 h 0.002 c 0.05699,-0.001 0.120523,-0.017 0.167969,-0.0644 0.04956,-0.0496 0.06641,-0.11894 0.06641,-0.17774 0,-0.0768 -0.01843,-0.19486 -0.05078,-0.41211 -0.03222,-0.21633 -0.08056,-0.51645 -0.144531,-0.90039 v -0.004 c -0.110311,-0.772 -0.24884,-1.67117 -0.414063,-2.69922 l 0.002,0.002 z m -0.15039,0.82227 0.248047,1.73046 c 0.165273,1.02837 0.302011,1.92854 0.412109,2.69922 v 0.002 c 0.06424,0.38543 0.112578,0.68585 0.144531,0.90039 0.03012,0.20224 0.04331,0.32363 0.04492,0.35156 -0.526437,0.0359 -1.206082,0.0547 -2.042969,0.0547 -0.902899,0 -1.512088,-0.01 -1.9374996,-0.0254 0.034574,-0.0662 0.080461,-0.15025 0.1445316,-0.26953 0.140945,-0.26241 0.352346,-0.65331 0.634765,-1.16993 0.52234,-0.9555 1.34594,-2.44959 2.351563,-4.27343 z"
             style="color:#000000;font-style:italic;font-variant:normal;font-weight:normal;font-stretch:normal;font-size:medium;line-height:1.25;font-family:'Crimson Text';-inkscape-font-specification:'Crimson Text Italic';font-variant-ligatures:normal;font-variant-position:normal;font-variant-caps:normal;font-variant-numeric:normal;font-variant-alternates:normal;font-variant-east-asian:normal;font-feature-settings:normal;font-variation-settings:normal;text-indent:0;text-align:start;text-decoration:none;text-decoration-line:none;text-decoration-style:solid;text-decoration-color:#000000;letter-spacing:0px;word-spacing:0px;text-transform:none;writing-mode:lr-tb;direction:ltr;text-orientation:mixed;dominant-baseline:auto;baseline-shift:baseline;text-anchor:start;white-space:normal;shape-padding:0;shape-margin:0;inline-size:0;clip-rule:nonzero;display:inline;overflow:visible;visibility:visible;isolation:auto;mix-blend-mode:normal;color-interpolation:sRGB;color-interpolation-filters:linearRGB;solid-color:#000000;solid-opacity:1;vector-effect:none;fill-opacity:1;fill-rule:nonzero;stroke:none;stroke-width:0.264583;stroke-linecap:butt;stroke-linejoin:miter;stroke-miterlimit:4;stroke-dasharray:none;stroke-dashoffset:0;stroke-opacity:1;color-rendering:auto;image-rendering:auto;shape-rendering:auto;text-rendering:auto;enable-background:accumulate;stop-color:#000000;stop-opacity:1" />
        </g>
      </g>
      <g
         style="font-style:normal;font-variant:normal;font-weight:bold;font-stretch:condensed;font-size:28.2223px;line-height:1.25;font-family:'IBM Plex Sans Condensed';-inkscape-font-specification:'IBM Plex Sans Condensed, Bold Condensed';letter-spacing:0px;word-spacing:0px;fill:#241f31;stroke-width:0.264583"
         id="text1654-7"
         aria-label="A"
         transform="matrix(1.1767864,0,0,1.1767864,-15.288499,-168.43268)">
        <g
           style="opacity:1"
           id="g1036">
          <path
             id="path1038"
             d="m -20.467963,206.2238 h 1.185337 l 2.356562,-6.43468 h 9.3698032 l 2.3565621,6.43468 h 1.2135588 l -7.4506871,-20.40472 h -1.566338 z m 3.979344,-7.64824 4.247457,-11.61348 4.2474556,11.61348 z"
             style="color:#000000;font-style:normal;font-variant:normal;font-weight:100;font-stretch:normal;font-size:medium;line-height:1.25;font-family:'Public Sans';-inkscape-font-specification:'Public Sans Thin';font-variant-ligatures:normal;font-variant-position:normal;font-variant-caps:normal;font-variant-numeric:normal;font-variant-alternates:normal;font-variant-east-asian:normal;font-feature-settings:normal;font-variation-settings:normal;text-indent:0;text-align:start;text-decoration:none;text-decoration-line:none;text-decoration-style:solid;text-decoration-color:#000000;letter-spacing:0px;word-spacing:0px;text-transform:none;writing-mode:lr-tb;direction:ltr;text-orientation:mixed;dominant-baseline:auto;baseline-shift:baseline;text-anchor:start;white-space:normal;shape-padding:0;shape-margin:0;inline-size:0;clip-rule:nonzero;display:inline;overflow:visible;visibility:visible;isolation:auto;mix-blend-mode:normal;color-interpolation:sRGB;color-interpolation-filters:linearRGB;solid-color:#000000;solid-opacity:1;vector-effect:none;fill:#241f31;fill-opacity:1;fill-rule:nonzero;stroke:none;stroke-width:0.264583;stroke-linecap:butt;stroke-linejoin:miter;stroke-miterlimit:4;stroke-dasharray:none;stroke-dashoffset:0;stroke-opacity:1;color-rendering:auto;image-rendering:auto;shape-rendering:auto;text-rendering:auto;enable-background:accumulate;stop-color:#000000;stop-opacity:1" />
          <path
             id="path1040"
             d="m -13.095703,185.6875 -7.560547,20.66797 h 0.1875 1.279297 l 2.355469,-6.43359 h 9.1855465 l 2.3554687,6.43359 H -3.796875 L -11.34375,185.6875 Z m 0.185547,0.26367 h 1.380859 l 7.3535158,20.14063 h -0.9316407 l -2.3554687,-6.43555 H -17.017578 L -19.375,206.0918 h -0.904297 z m 0.669922,0.625 -4.4375,12.13086 h 0.189453 8.6835935 z m -0.002,0.77149 4.0605474,11.0957 h -8.1191404 z"
             style="color:#000000;font-style:normal;font-variant:normal;font-weight:100;font-stretch:normal;font-size:medium;line-height:1.25;font-family:'Public Sans';-inkscape-font-specification:'Public Sans Thin';font-variant-ligatures:normal;font-variant-position:normal;font-variant-caps:normal;font-variant-numeric:normal;font-variant-alternates:normal;font-variant-east-asian:normal;font-feature-settings:normal;font-variation-settings:normal;text-indent:0;text-align:start;text-decoration:none;text-decoration-line:none;text-decoration-style:solid;text-decoration-color:#000000;letter-spacing:0px;word-spacing:0px;text-transform:none;writing-mode:lr-tb;direction:ltr;text-orientation:mixed;dominant-baseline:auto;baseline-shift:baseline;text-anchor:start;white-space:normal;shape-padding:0;shape-margin:0;inline-size:0;clip-rule:nonzero;display:inline;overflow:visible;visibility:visible;isolation:auto;mix-blend-mode:normal;color-interpolation:sRGB;color-interpolation-filters:linearRGB;solid-color:#000000;solid-opacity:1;vector-effect:none;fill-opacity:1;fill-rule:nonzero;stroke:none;stroke-width:0.264583;stroke-linecap:butt;stroke-linejoin:miter;stroke-miterlimit:4;stroke-dasharray:none;stroke-dashoffset:0;stroke-opacity:1;color-rendering:auto;image-rendering:auto;shape-rendering:auto;text-rendering:auto;enable-background:accumulate;stop-color:#000000;stop-opacity:1" />
        </g>
      </g>
      <g
         style="font-style:italic;font-variant:normal;font-weight:normal;font-stretch:normal;font-size:28.2223px;line-height:1.25;font-family:'Crimson Text';-inkscape-font-specification:'Crimson Text Italic';letter-spacing:0px;word-spacing:0px;fill:#241f31;stroke-width:0.264583"
         id="text1658-3"
         aria-label="A"
         transform="matrix(1.1767864,0,0,1.1767864,-15.288499,-168.43268)">
        <g
           style="opacity:1"
           id="g1042">
          <path
             id="path1044"
             d="M 12.841365,203.20401 H 6.1809025 l -0.9877804,3.01979 h -6.5757958 l 7.3095755,-19.98139 h 7.2249092 l 7.281353,19.98139 h -6.604018 z m -1.524004,-4.71312 -1.8062271,-5.55979 -1.8062272,5.55979 z"
             style="color:#000000;font-style:normal;font-variant:normal;font-weight:900;font-stretch:normal;font-size:medium;line-height:1.25;font-family:Poppins;-inkscape-font-specification:'Poppins Heavy';font-variant-ligatures:normal;font-variant-position:normal;font-variant-caps:normal;font-variant-numeric:normal;font-variant-alternates:normal;font-variant-east-asian:normal;font-feature-settings:normal;font-variation-settings:normal;text-indent:0;text-align:start;text-decoration:none;text-decoration-line:none;text-decoration-style:solid;text-decoration-color:#000000;letter-spacing:0px;word-spacing:0px;text-transform:none;writing-mode:lr-tb;direction:ltr;text-orientation:mixed;dominant-baseline:auto;baseline-shift:baseline;text-anchor:start;white-space:normal;shape-padding:0;shape-margin:0;inline-size:0;clip-rule:nonzero;display:inline;overflow:visible;visibility:visible;isolation:auto;mix-blend-mode:normal;color-interpolation:sRGB;color-interpolation-filters:linearRGB;solid-color:#000000;solid-opacity:1;vector-effect:none;fill:#241f31;fill-opacity:1;fill-rule:nonzero;stroke:none;stroke-width:0.264583;stroke-linecap:butt;stroke-linejoin:miter;stroke-miterlimit:4;stroke-dasharray:none;stroke-dashoffset:0;stroke-opacity:1;color-rendering:auto;image-rendering:auto;shape-rendering:auto;text-rendering:auto;enable-background:accumulate;stop-color:#000000;stop-opacity:1" />
          <path
             id="path1046"
             d="m 5.8339844,186.10938 -7.40625,20.24609 h 6.8613281 l 0.9882813,-3.01953 h 6.4667972 l 0.988281,3.01953 h 6.890625 l -7.378906,-20.24609 z m 0.1855468,0.26562 h 7.0390628 l 7.185547,19.7168 h -6.31836 L 12.9375,203.07227 H 12.8418 6.0859405 l -0.9882813,3.01953 h -6.2910156 z m 3.4921876,6.12891 -1.9882813,6.11914 H 11.5 l -0.05664,-0.17383 z m 0,0.85547 1.6230472,5 H 7.8867188 Z"
             style="color:#000000;font-style:normal;font-variant:normal;font-weight:900;font-stretch:normal;font-size:medium;line-height:1.25;font-family:Poppins;-inkscape-font-specification:'Poppins Heavy';font-variant-ligatures:normal;font-variant-position:normal;font-variant-caps:normal;font-variant-numeric:normal;font-variant-alternates:normal;font-variant-east-asian:normal;font-feature-settings:normal;font-variation-settings:normal;text-indent:0;text-align:start;text-decoration:none;text-decoration-line:none;text-decoration-style:solid;text-decoration-color:#000000;letter-spacing:0px;word-spacing:0px;text-transform:none;writing-mode:lr-tb;direction:ltr;text-orientation:mixed;dominant-baseline:auto;baseline-shift:baseline;text-anchor:start;white-space:normal;shape-padding:0;shape-margin:0;inline-size:0;clip-rule:nonzero;display:inline;overflow:visible;visibility:visible;isolation:auto;mix-blend-mode:normal;color-interpolation:sRGB;color-interpolation-filters:linearRGB;solid-color:#000000;solid-opacity:1;vector-effect:none;fill-opacity:1;fill-rule:nonzero;stroke:none;stroke-width:0.264583;stroke-linecap:butt;stroke-linejoin:miter;stroke-miterlimit:4;stroke-dasharray:none;stroke-dashoffset:0;stroke-opacity:1;color-rendering:auto;image-rendering:auto;shape-rendering:auto;text-rendering:auto;enable-background:accumulate;stop-color:#000000;stop-opacity:1" />
        </g>
      </g>
    </g>
  </g>
</svg>
