<?xml version="1.0" encoding="UTF-8" standalone="no"?>
<svg
   xmlns:dc="http://purl.org/dc/elements/1.1/"
   xmlns:cc="http://creativecommons.org/ns#"
   xmlns:rdf="http://www.w3.org/1999/02/22-rdf-syntax-ns#"
   xmlns:svg="http://www.w3.org/2000/svg"
   xmlns="http://www.w3.org/2000/svg"
   xmlns:sodipodi="http://sodipodi.sourceforge.net/DTD/sodipodi-0.dtd"
   xmlns:inkscape="http://www.inkscape.org/namespaces/inkscape"
   inkscape:version="1.0 (4035a4fb49, 2020-05-01)"
   sodipodi:docname="com.rafaelmardojai.WebfontKitGenerator.svg"
   id="svg34"
   version="1.1"
   width="128px"
   viewBox="0 0 128 128"
   height="128px">
  <metadata
     id="metadata40">
    <rdf:RDF>
      <cc:Work
         rdf:about="">
        <dc:format>image/svg+xml</dc:format>
        <dc:type
           rdf:resource="http://purl.org/dc/dcmitype/StillImage" />
      </cc:Work>
    </rdf:RDF>
  </metadata>
  <defs
     id="defs38" />
  <sodipodi:namedview
     inkscape:current-layer="svg34"
     inkscape:window-maximized="1"
     inkscape:window-y="27"
     inkscape:window-x="0"
     inkscape:cy="88.270605"
     inkscape:cx="-7.1146484"
     inkscape:zoom="1.1821942"
     showgrid="false"
     id="namedview36"
     inkscape:window-height="1016"
     inkscape:window-width="1920"
     inkscape:pageshadow="2"
     inkscape:pageopacity="0"
     guidetolerance="10"
     gridtolerance="10"
     objecttolerance="10"
     borderopacity="1"
     bordercolor="#666666"
     pagecolor="#ffffff" />
  <linearGradient
     y2="-449.394012"
     y1="-449.394012"
     x2="536.595886"
     x1="88.595886"
     gradientUnits="userSpaceOnUse"
     gradientTransform="matrix(0.196428,0,0,0.342105,2.59729,273.74005)"
     id="a">
    <stop
       id="stop2"
       stop-color="#d5d3cf"
       offset="0" />
    <stop
       id="stop4"
       stop-color="#e3e2df"
       offset="0.0384615" />
    <stop
       id="stop6"
       stop-color="#c0bfbc"
       offset="0.0769231" />
    <stop
       id="stop8"
       stop-color="#c0bfbc"
       offset="0.923077" />
    <stop
       id="stop10"
       stop-color="#e3e2df"
       offset="0.961538" />
    <stop
       id="stop12"
       stop-color="#d5d3cf"
       offset="1" />
  </linearGradient>
  <linearGradient
     gradientTransform="translate(-4)"
     y2="85.856194"
     y1="36.714844"
     x2="67.861115"
     x1="68"
     gradientUnits="userSpaceOnUse"
     id="b">
    <stop
       id="stop15"
       stop-opacity="0.010512"
       stop-color="#26a269"
       offset="0" />
    <stop
       id="stop17"
       stop-opacity="0.996078"
       stop-color="#25d069"
       offset="0.308743" />
    <stop
       id="stop19"
       stop-opacity="0.996078"
       stop-color="#25d069"
       offset="0.660183" />
    <stop
       id="stop21"
       stop-opacity="0"
       stop-color="#26a269"
       offset="1" />
  </linearGradient>
  <path
     style="fill:url(#a)"
     id="path24"
     fill="url(#a)"
     d="m 28,16 h 72 c 4.41797,0 8,3.582031 8,8 v 88 c 0,4.41797 -3.58203,8 -8,8 H 28 c -4.417969,0 -8,-3.58203 -8,-8 V 24 c 0,-4.417969 3.582031,-8 8,-8 z m 0,0" />
  <path
     id="path26"
     fill="#f6f5f4"
     d="m 28,8 h 72 c 4.41797,0 8,3.582031 8,8 v 92 c 0,4.41797 -3.58203,8 -8,8 H 28 c -4.417969,0 -8,-3.58203 -8,-8 V 16 c 0,-4.417969 3.582031,-8 8,-8 z m 0,0" />
  <path
     id="path28"
     fill="#666666"
     d="m 80.457031,18 v 9.839844 h -5.679687 l -0.304688,-4.132813 h -6.796875 v 26.015625 l 3.957031,0.761719 v 4.4375 H 56.316406 v -4.4375 l 3.957032,-0.761719 V 23.707031 H 53.5 l -0.300781,4.132813 h -5.65625 V 18 Z m 0,0" />
  <path
     id="path30"
     fill="#666666"
     d="M 88.253906,73.542969 85.210938,73.921875 77.730469,106 H 70.859375 L 64.089844,81.632812 H 63.9375 L 57.167969,106 h -6.875 l -7.53125,-32.078125 -3.015625,-0.378906 v -4.464844 h 13.589844 v 4.464844 l -3.371094,0.582031 4.234375,20.234375 0.152343,0.02734 6.921876,-25.308594 h 5.453124 l 6.972657,25.308594 0.152343,-0.02734 L 78.0625,74.125 74.6875,73.542969 v -4.464844 h 13.566406 z m 0,0" />
  <path
     style="fill:url(#b)"
     id="path32"
     fill="url(#b)"
     d="m 60.269531,36.714844 v 22.09375 H 48.824219 L 64.089844,81.632812 79.175781,58.808594 h -11.5 v -22.09375 z m 0,0" />
</svg>
