<?xml version="1.0" encoding="UTF-8"?>
<svg height="16px" viewBox="0 0 16 16" width="16px" xmlns="http://www.w3.org/2000/svg">
    <g fill="#241f31">
        <path d="m 2 11 v 4 c 0 0.550781 0.449219 1 1 1 h 4 v -5 z m 7 0 v 5 h 4 c 0.550781 0 1 -0.449219 1 -1 v -4 z m 0 0"/>
        <path d="m 2 6 c -0.550781 0 -1 0.449219 -1 1 v 3 h 6 v -4 z m 7 0 v 4 h 6 v -3 c 0 -0.550781 -0.449219 -1 -1 -1 z m 0 0"/>
        <path d="m 6 1 c -1.375 0 -2.5 1.125 -2.5 2.5 s 1.125 2.5 2.5 2.5 h 2 c 0.277344 0 0.5 -0.222656 0.5 -0.5 v -2 c 0 -1.375 -1.125 -2.5 -2.5 -2.5 z m 0 1 c 0.835938 0 1.5 0.664062 1.5 1.5 v 1.5 h -1.5 c -0.835938 0 -1.5 -0.664062 -1.5 -1.5 s 0.664062 -1.5 1.5 -1.5 z m 0 0"/>
        <path d="m 10 1 c -1.375 0 -2.5 1.125 -2.5 2.5 v 2 c 0 0.277344 0.222656 0.5 0.5 0.5 h 2 c 1.375 0 2.5 -1.125 2.5 -2.5 s -1.125 -2.5 -2.5 -2.5 z m 0 1 c 0.835938 0 1.5 0.664062 1.5 1.5 s -0.664062 1.5 -1.5 1.5 h -1.5 v -1.5 c 0 -0.835938 0.664062 -1.5 1.5 -1.5 z m 0 0"/>
    </g>
</svg>
